<svg width="187" height="28" fill="none" xmlns="http://www.w3.org/2000/svg"><path d="M3.644 2.484L.548 2.052v-1.8h19.26l.36 6.12h-2.34l-1.08-3.996-9.252-.252v10.44l6.516-.108.612-2.988h1.908v8.424H14.66l-.648-3.132-6.516-.144v10.26l5.616.36V27H.764v-1.764l2.88-.36V2.484zm19.265 14.472c0-2.16.444-4.032 1.332-5.616.888-1.584 2.052-2.784 3.492-3.6a9.255 9.255 0 014.68-1.26c3.024 0 5.292.96 6.804 2.88 1.536 1.92 2.304 4.44 2.304 7.56 0 2.184-.444 4.068-1.332 5.652-.888 1.584-2.064 2.784-3.528 3.6a9.267 9.267 0 01-4.644 1.224c-3.024 0-5.304-.96-6.84-2.88-1.512-1.92-2.268-4.44-2.268-7.56zm9.324 8.388c1.656 0 2.928-.684 3.816-2.052.888-1.368 1.332-3.396 1.332-6.084 0-2.664-.408-4.776-1.224-6.336-.816-1.56-2.124-2.34-3.924-2.34-1.656 0-2.94.684-3.852 2.052-.888 1.368-1.332 3.396-1.332 6.084 0 2.664.42 4.776 1.26 6.336.84 1.56 2.148 2.34 3.924 2.34zm12.65-.108l2.7-.216V9.792l-2.592-.648V7.2l4.968-.648h.072l.792.648v.648l-.108 2.808h.108c.24-.408.672-.936 1.296-1.584s1.428-1.236 2.412-1.764a6.44 6.44 0 013.204-.828c.48 0 .876.06 1.188.18v4.032c-.168-.12-.444-.228-.828-.324-.36-.12-.768-.18-1.224-.18-1.992 0-3.84.612-5.544 1.836v12.96l4.572.288V27H44.883v-1.764zm25.273 2.16c-2.904 0-5.124-.948-6.66-2.844-1.512-1.896-2.268-4.428-2.268-7.596 0-2.088.396-3.924 1.188-5.508.792-1.584 1.896-2.808 3.312-3.672 1.44-.864 3.072-1.296 4.896-1.296 2.232 0 3.96.624 5.184 1.872 1.248 1.224 1.908 2.988 1.98 5.292 0 1.464-.084 2.58-.252 3.348H65.152c.048 2.376.6 4.296 1.656 5.76 1.056 1.44 2.556 2.16 4.5 2.16.96 0 1.956-.168 2.988-.504 1.056-.36 1.872-.78 2.448-1.26l.684 1.584c-.696.72-1.728 1.344-3.096 1.872a11.51 11.51 0 01-4.176.792zm3.672-12.312c.072-.504.108-1.02.108-1.548-.024-1.56-.36-2.784-1.008-3.672-.624-.912-1.62-1.368-2.988-1.368-1.392 0-2.508.504-3.348 1.512-.816 1.008-1.284 2.7-1.404 5.076h8.64zm6.622 2.052c0-1.992.384-3.792 1.152-5.4a9.157 9.157 0 013.456-3.816c1.536-.96 3.372-1.44 5.508-1.44 1.032 0 1.92.096 2.664.288.744.192 1.632.456 2.664.792l-.144 5.544h-2.34l-.792-3.672c-.144-.672-1.056-1.008-2.736-1.008-1.68 0-3.012.684-3.996 2.052-.96 1.344-1.44 3.264-1.44 5.76 0 2.832.54 4.992 1.62 6.48 1.104 1.464 2.532 2.196 4.284 2.196a8.518 8.518 0 002.844-.468c.912-.312 1.692-.684 2.34-1.116l.684 1.44c-.648.672-1.608 1.284-2.88 1.836a9.71 9.71 0 01-3.816.792c-1.968 0-3.636-.444-5.004-1.332-1.344-.888-2.364-2.1-3.06-3.636-.672-1.56-1.008-3.324-1.008-5.292zM99.339 21.6c0-2.256 1.128-3.912 3.384-4.968 2.256-1.08 5.112-1.656 8.568-1.728v-1.008c0-1.128-.12-2.016-.36-2.664-.24-.648-.66-1.116-1.26-1.404-.576-.312-1.404-.468-2.484-.468-1.224 0-2.328.18-3.312.54-.96.336-1.92.756-2.88 1.26l-.9-1.872c.312-.264.888-.612 1.728-1.044.84-.432 1.812-.816 2.916-1.152a11.323 11.323 0 013.312-.504c1.704 0 3.048.24 4.032.72 1.008.456 1.728 1.2 2.16 2.232.432 1.032.648 2.412.648 4.14v11.556h2.124v1.584c-.48.12-1.092.24-1.836.36-.72.12-1.356.18-1.908.18-.672 0-1.128-.108-1.368-.324-.24-.192-.36-.636-.36-1.332v-1.188c-.72.72-1.608 1.38-2.664 1.98-1.032.6-2.208.9-3.528.9-1.728 0-3.168-.492-4.32-1.476-1.128-1.008-1.692-2.448-1.692-4.32zm7.56 3.348c.624 0 1.344-.192 2.16-.576.816-.384 1.56-.84 2.232-1.368v-6.192c-2.616 0-4.596.408-5.94 1.224-1.32.792-1.98 1.836-1.98 3.132s.312 2.256.936 2.88c.648.6 1.512.9 2.592.9zm15.967-.828c.24.36.744.684 1.512.972.792.288 1.62.432 2.484.432 1.368 0 2.376-.264 3.024-.792.648-.528.972-1.26.972-2.196a2.53 2.53 0 00-.612-1.692c-.408-.48-.984-.9-1.728-1.26-.72-.384-1.764-.84-3.132-1.368-1.848-.696-3.204-1.524-4.068-2.484-.84-.984-1.26-2.268-1.26-3.852 0-1.056.312-1.98.936-2.772.648-.792 1.524-1.404 2.628-1.836 1.128-.456 2.376-.684 3.744-.684 1.104 0 2.064.084 2.88.252.84.168 1.512.336 2.016.504.504.168.84.276 1.008.324v4.464h-2.196l-.72-2.664c-.144-.288-.528-.528-1.152-.72-.624-.216-1.32-.324-2.088-.324-1.08 0-1.956.24-2.628.72-.648.48-.972 1.128-.972 1.944 0 .72.168 1.32.504 1.8.36.456.804.828 1.332 1.116.528.288 1.248.624 2.16 1.008l.72.288c1.344.528 2.436 1.032 3.276 1.512a6.36 6.36 0 012.088 1.908c.576.768.864 1.716.864 2.844 0 1.776-.696 3.192-2.088 4.248-1.368 1.056-3.252 1.584-5.652 1.584-1.176 0-2.412-.156-3.708-.468-1.272-.336-2.316-.672-3.132-1.008v-4.608h2.34l.648 2.808zm20.984 3.24c-1.368 0-2.388-.312-3.06-.936-.672-.624-1.008-1.692-1.008-3.204V9.396h-2.592v-1.62c.12-.024.456-.108 1.008-.252.552-.144.924-.276 1.116-.396.384-.216.684-.648.9-1.296.192-.456.42-1.188.684-2.196a274.3 274.3 0 00.468-1.8h2.124l.072 5.184h6.012v2.376h-6.012v11.052c0 1.368.036 2.328.108 2.88.096.552.276.912.54 1.08.288.168.768.252 1.44.252.648 0 1.356-.084 2.124-.252.792-.168 1.404-.348 1.836-.54l.54 1.62c-.576.432-1.512.852-2.808 1.26-1.272.408-2.436.612-3.492.612zm17.36.036c-2.904 0-5.124-.948-6.66-2.844-1.512-1.896-2.268-4.428-2.268-7.596 0-2.088.396-3.924 1.188-5.508.792-1.584 1.896-2.808 3.312-3.672 1.44-.864 3.072-1.296 4.896-1.296 2.232 0 3.96.624 5.184 1.872 1.248 1.224 1.908 2.988 1.98 5.292 0 1.464-.084 2.58-.252 3.348h-12.384c.048 2.376.6 4.296 1.656 5.76 1.056 1.44 2.556 2.16 4.5 2.16.96 0 1.956-.168 2.988-.504 1.056-.36 1.872-.78 2.448-1.26l.684 1.584c-.696.72-1.728 1.344-3.096 1.872a11.51 11.51 0 01-4.176.792zm3.672-12.312c.072-.504.108-1.02.108-1.548-.024-1.56-.36-2.784-1.008-3.672-.624-.912-1.62-1.368-2.988-1.368-1.392 0-2.508.504-3.348 1.512-.816 1.008-1.284 2.7-1.404 5.076h8.64zm7.126 10.152l2.7-.216V9.792l-2.592-.648V7.2l4.968-.648h.072l.792.648v.648l-.108 2.808h.108c.24-.408.672-.936 1.296-1.584s1.428-1.236 2.412-1.764a6.44 6.44 0 013.204-.828c.48 0 .876.06 1.188.18v4.032c-.168-.12-.444-.228-.828-.324-.36-.12-.768-.18-1.224-.18-1.992 0-3.84.612-5.544 1.836v12.96l4.572.288V27h-11.016v-1.764z" fill="#212B5A"/></svg>